<svg xmlns="http://www.w3.org/2000/svg" width="200" height="200" viewBox="0 0 200 200"><title>stem-backgroundAsset 1</title><g id="b6ff0271-ec69-4160-a25f-d0d47ac1c8fa" data-name="Layer 2"><g id="ba2267a4-9ab6-4750-918c-a2ac76f60f35" data-name="Layer 1"><rect width="200" height="200" style="fill:none"/><polyline points="92.09 85.39 92.09 79.39 95.09 85.39 95.09 79.39" style="fill:none;stroke:#000;stroke-linecap:round;stroke-linejoin:round"/><path d="M95.09,96.39h-1.7a1.3,1.3,0,0,0-.72,2.39L94.51,100a1.29,1.29,0,0,1,.37,1.8,1.31,1.31,0,0,1-1.09.58h-1.7" style="fill:none;stroke:#000;stroke-linecap:round;stroke-linejoin:round"/><path d="M83.09,90.64a.25.25,0,0,1,.25.25" style="fill:none;stroke:#000;stroke-linecap:round;stroke-linejoin:round"/><path d="M82.84,90.89a.25.25,0,0,1,.25-.25" style="fill:none;stroke:#000;stroke-linecap:round;stroke-linejoin:round"/><path d="M83.09,91.14a.25.25,0,0,1-.25-.25" style="fill:none;stroke:#000;stroke-linecap:round;stroke-linejoin:round"/><path d="M83.34,90.89a.25.25,0,0,1-.25.25" style="fill:none;stroke:#000;stroke-linecap:round;stroke-linejoin:round"/><path d="M84.37,95.93a.25.25,0,0,1,.34.09h0" style="fill:none;stroke:#000;stroke-linecap:round;stroke-linejoin:round"/><path d="M84.28,96.27a.25.25,0,0,1,.09-.34h0" style="fill:none;stroke:#000;stroke-linecap:round;stroke-linejoin:round"/><path d="M84.62,96.36a.25.25,0,0,1-.34-.09h0" style="fill:none;stroke:#000;stroke-linecap:round;stroke-linejoin:round"/><path d="M84.71,96a.25.25,0,0,1-.09.34" style="fill:none;stroke:#000;stroke-linecap:round;stroke-linejoin:round"/><path d="M88.12,99.86a.26.26,0,0,1,.35-.09" style="fill:none;stroke:#000;stroke-linecap:round;stroke-linejoin:round"/><path d="M88.22,100.2a.26.26,0,0,1-.1-.34h0" style="fill:none;stroke:#000;stroke-linecap:round;stroke-linejoin:round"/><path d="M88.56,100.11a.25.25,0,0,1-.34.09h0" style="fill:none;stroke:#000;stroke-linecap:round;stroke-linejoin:round"/><path d="M88.47,99.77a.25.25,0,0,1,.09.34h0" style="fill:none;stroke:#000;stroke-linecap:round;stroke-linejoin:round"/><path d="M98.62,100.11a.27.27,0,0,1,.09-.34h0" style="fill:none;stroke:#000;stroke-linecap:round;stroke-linejoin:round"/><path d="M99,100.2a.24.24,0,0,1-.34-.09h0" style="fill:none;stroke:#000;stroke-linecap:round;stroke-linejoin:round"/><path d="M99.06,99.86a.25.25,0,0,1-.09.34h0" style="fill:none;stroke:#000;stroke-linecap:round;stroke-linejoin:round"/><path d="M98.72,99.77a.25.25,0,0,1,.34.09" style="fill:none;stroke:#000;stroke-linecap:round;stroke-linejoin:round"/><path d="M102.56,96.36a.25.25,0,0,1-.09-.34" style="fill:none;stroke:#000;stroke-linecap:round;stroke-linejoin:round"/><path d="M102.9,96.27a.25.25,0,0,1-.34.09h0" style="fill:none;stroke:#000;stroke-linecap:round;stroke-linejoin:round"/><path d="M102.81,95.93a.25.25,0,0,1,.09.34h0" style="fill:none;stroke:#000;stroke-linecap:round;stroke-linejoin:round"/><path d="M102.47,96a.25.25,0,0,1,.34-.09h0" style="fill:none;stroke:#000;stroke-linecap:round;stroke-linejoin:round"/><path d="M104.09,91.14a.25.25,0,0,1-.25-.25" style="fill:none;stroke:#000;stroke-linecap:round;stroke-linejoin:round"/><path d="M104.34,90.89a.25.25,0,0,1-.25.25" style="fill:none;stroke:#000;stroke-linecap:round;stroke-linejoin:round"/><path d="M104.09,90.64a.25.25,0,0,1,.25.25" style="fill:none;stroke:#000;stroke-linecap:round;stroke-linejoin:round"/><path d="M103.84,90.89a.25.25,0,0,1,.25-.25" style="fill:none;stroke:#000;stroke-linecap:round;stroke-linejoin:round"/><path d="M102.81,85.86a.25.25,0,0,1-.34-.09h0" style="fill:none;stroke:#000;stroke-linecap:round;stroke-linejoin:round"/><path d="M102.9,85.52a.25.25,0,0,1-.09.34h0" style="fill:none;stroke:#000;stroke-linecap:round;stroke-linejoin:round"/><path d="M102.56,85.43a.25.25,0,0,1,.34.09h0" style="fill:none;stroke:#000;stroke-linecap:round;stroke-linejoin:round"/><path d="M102.47,85.77a.25.25,0,0,1,.09-.34" style="fill:none;stroke:#000;stroke-linecap:round;stroke-linejoin:round"/><path d="M99.06,81.93a.26.26,0,0,1-.34.09" style="fill:none;stroke:#000;stroke-linecap:round;stroke-linejoin:round"/><path d="M99,81.58a.25.25,0,0,1,.09.34h0" style="fill:none;stroke:#000;stroke-linecap:round;stroke-linejoin:round"/><path d="M98.62,81.68a.25.25,0,0,1,.34-.1h0" style="fill:none;stroke:#000;stroke-linecap:round;stroke-linejoin:round"/><path d="M98.72,82a.26.26,0,0,1-.1-.34h0" style="fill:none;stroke:#000;stroke-linecap:round;stroke-linejoin:round"/><path d="M88.56,81.68a.25.25,0,0,1-.09.34h0" style="fill:none;stroke:#000;stroke-linecap:round;stroke-linejoin:round"/><path d="M88.22,81.58a.25.25,0,0,1,.34.09h0" style="fill:none;stroke:#000;stroke-linecap:round;stroke-linejoin:round"/><path d="M88.12,81.93a.27.27,0,0,1,.1-.35h0" style="fill:none;stroke:#000;stroke-linecap:round;stroke-linejoin:round"/><path d="M88.47,82a.27.27,0,0,1-.35-.09" style="fill:none;stroke:#000;stroke-linecap:round;stroke-linejoin:round"/><path d="M84.62,85.43a.25.25,0,0,1,.09.34" style="fill:none;stroke:#000;stroke-linecap:round;stroke-linejoin:round"/><path d="M84.28,85.52a.25.25,0,0,1,.34-.09h0" style="fill:none;stroke:#000;stroke-linecap:round;stroke-linejoin:round"/><path d="M84.37,85.86a.25.25,0,0,1-.09-.34h0" style="fill:none;stroke:#000;stroke-linecap:round;stroke-linejoin:round"/><path d="M84.71,85.77a.24.24,0,0,1-.34.09h0" style="fill:none;stroke:#000;stroke-linecap:round;stroke-linejoin:round"/><line x1="98.2" y1="30.88" x2="121.2" y2="30.88" style="fill:none;stroke:#000;stroke-linecap:round;stroke-linejoin:round"/><line x1="121.2" y1="32.88" x2="98.2" y2="32.88" style="fill:none;stroke:#000;stroke-linecap:round;stroke-linejoin:round"/><path d="M109.2,36a4,4,0,1,1-2,0" style="fill:none;stroke:#000;stroke-linecap:round;stroke-linejoin:round"/><path d="M109.2,39.38a1,1,0,1,1-2,0v-6.5h2Z" style="fill:none;stroke:#000;stroke-linecap:round;stroke-linejoin:round"/><line x1="104.2" y1="39.88" x2="104.2" y2="48.88" style="fill:none;stroke:#000;stroke-linecap:round;stroke-linejoin:round"/><line x1="111.7" y1="37.88" x2="119.2" y2="48.88" style="fill:none;stroke:#000;stroke-linecap:round;stroke-linejoin:round"/><rect x="101.2" y="48.88" width="6" height="5" rx="1" style="fill:none;stroke:#000;stroke-linecap:round;stroke-linejoin:round"/><polyline points="119.2 45.38 119.2 48.88 115.7 48.88" style="fill:none;stroke:#000;stroke-linecap:round;stroke-linejoin:round"/><line x1="105.2" y1="48.88" x2="101.2" y2="52.88" style="fill:none;stroke:#000;stroke-linecap:round;stroke-linejoin:round"/><line x1="107.2" y1="49.88" x2="103.2" y2="53.88" style="fill:none;stroke:#000;stroke-linecap:round;stroke-linejoin:round"/><line x1="159.62" y1="94.78" x2="180.33" y2="87.38" style="fill:none;stroke:#000;stroke-linecap:round;stroke-linejoin:round"/><line x1="171.32" y1="94.85" x2="163.58" y2="73.19" style="fill:none;stroke:#000;stroke-linecap:round;stroke-linejoin:round"/><polyline points="177.14 85.87 180.33 87.38 178.82 90.58" style="fill:none;stroke:#000;stroke-linecap:round;stroke-linejoin:round"/><polyline points="162.07 76.38 163.58 73.19 166.78 74.7" style="fill:none;stroke:#000;stroke-linecap:round;stroke-linejoin:round"/><polyline points="170.44 76.05 171.96 72.85 175.15 74.36" style="fill:none;stroke:#000;stroke-linecap:round;stroke-linejoin:round"/><polyline points="155.38 81.43 156.89 78.23 160.09 79.75" style="fill:none;stroke:#000;stroke-linecap:round;stroke-linejoin:round"/><polyline points="162.81 96.3 159.62 94.78 161.13 91.59" style="fill:none;stroke:#000;stroke-linecap:round;stroke-linejoin:round"/><path d="M156.89,78.23S164.33,93.1,170,91.08s2-18.23,2-18.23" style="fill:none;stroke:#000;stroke-linecap:round;stroke-linejoin:round"/><line x1="164.32" y1="78.23" x2="166.21" y2="77.56" style="fill:none;stroke:#000;stroke-linecap:round;stroke-linejoin:round"/><line x1="166.01" y1="82.94" x2="167.89" y2="82.27" style="fill:none;stroke:#000;stroke-linecap:round;stroke-linejoin:round"/><line x1="167.69" y1="87.65" x2="169.57" y2="86.98" style="fill:none;stroke:#000;stroke-linecap:round;stroke-linejoin:round"/><path d="M128.26,139.39,124,149a2,2,0,0,1-2.64,1l-9.13-4.07a2,2,0,0,1-1-2.64l4.94-11.1a1.07,1.07,0,0,0,.06-.66l-.46-1.75a.5.5,0,0,1,.35-.61.47.47,0,0,1,.33,0l11.09,4.93" style="fill:none;stroke:#000;stroke-linecap:round;stroke-linejoin:round"/><circle cx="119.58" cy="145.38" r="1.5" style="fill:none;stroke:#000;stroke-linecap:round;stroke-linejoin:round"/><line x1="120.61" y1="144.29" x2="133.04" y2="131.12" style="fill:none;stroke:#000;stroke-linecap:round;stroke-linejoin:round"/><line x1="117.3" y1="139.44" x2="124.15" y2="142.49" style="fill:none;stroke:#000;stroke-linecap:round;stroke-linejoin:round"/><line x1="124.15" y1="142.49" x2="126.43" y2="143.5" style="fill:none;stroke:#000;stroke-linecap:round;stroke-linejoin:round"/><path d="M120.19,136.62a.25.25,0,0,1,.13.33" style="fill:none;stroke:#000;stroke-linecap:round;stroke-linejoin:round"/><path d="M119.86,136.75a.25.25,0,0,1,.33-.13" style="fill:none;stroke:#000;stroke-linecap:round;stroke-linejoin:round"/><path d="M120,137.08a.25.25,0,0,1-.13-.33" style="fill:none;stroke:#000;stroke-linecap:round;stroke-linejoin:round"/><path d="M120.32,137a.26.26,0,0,1-.33.13" style="fill:none;stroke:#000;stroke-linecap:round;stroke-linejoin:round"/><path d="M123,134a.25.25,0,0,1,.13.33" style="fill:none;stroke:#000;stroke-linecap:round;stroke-linejoin:round"/><path d="M122.65,134.16A.26.26,0,0,1,123,134" style="fill:none;stroke:#000;stroke-linecap:round;stroke-linejoin:round"/><path d="M122.78,134.49a.26.26,0,0,1-.13-.33" style="fill:none;stroke:#000;stroke-linecap:round;stroke-linejoin:round"/><path d="M123.11,134.36a.25.25,0,0,1-.33.13" style="fill:none;stroke:#000;stroke-linecap:round;stroke-linejoin:round"/><path d="M125.58,127a.25.25,0,0,1,.12.33" style="fill:none;stroke:#000;stroke-linecap:round;stroke-linejoin:round"/><path d="M125.25,127.1a.25.25,0,0,1,.33-.12" style="fill:none;stroke:#000;stroke-linecap:round;stroke-linejoin:round"/><path d="M125.37,127.43a.25.25,0,0,1-.12-.33" style="fill:none;stroke:#000;stroke-linecap:round;stroke-linejoin:round"/><path d="M125.7,127.31a.25.25,0,0,1-.33.12" style="fill:none;stroke:#000;stroke-linecap:round;stroke-linejoin:round"/><path d="M122.53,128.9a.26.26,0,0,1,.13.33" style="fill:none;stroke:#000;stroke-linecap:round;stroke-linejoin:round"/><path d="M122.2,129a.25.25,0,0,1,.33-.13" style="fill:none;stroke:#000;stroke-linecap:round;stroke-linejoin:round"/><path d="M122.33,129.36a.25.25,0,0,1-.13-.33" style="fill:none;stroke:#000;stroke-linecap:round;stroke-linejoin:round"/><path d="M122.66,129.23a.25.25,0,0,1-.33.13" style="fill:none;stroke:#000;stroke-linecap:round;stroke-linejoin:round"/><line x1="115.47" y1="133.7" x2="117.3" y2="134.51" style="fill:none;stroke:#000;stroke-linecap:round;stroke-linejoin:round"/><line x1="111.81" y1="141.92" x2="113.64" y2="142.73" style="fill:none;stroke:#000;stroke-linecap:round;stroke-linejoin:round"/><line x1="113.64" y1="137.81" x2="115.47" y2="138.62" style="fill:none;stroke:#000;stroke-linecap:round;stroke-linejoin:round"/><line x1="68.4" y1="154.99" x2="68.4" y2="158.05" style="fill:none;stroke:#000;stroke-linecap:round;stroke-linejoin:round"/><line x1="66.9" y1="156.49" x2="69.9" y2="156.49" style="fill:none;stroke:#000;stroke-linecap:round;stroke-linejoin:round"/><path d="M83.4,174.49a3,3,0,0,0,3-3" style="fill:none;stroke:#000;stroke-linecap:round;stroke-linejoin:round"/><path d="M86.4,171.49a3,3,0,0,0,3,3" style="fill:none;stroke:#000;stroke-linecap:round;stroke-linejoin:round"/><path d="M86.4,177.49a3,3,0,0,0-3-3" style="fill:none;stroke:#000;stroke-linecap:round;stroke-linejoin:round"/><path d="M89.4,174.49a3,3,0,0,0-3,3" style="fill:none;stroke:#000;stroke-linecap:round;stroke-linejoin:round"/><path d="M80.58,158.19c3.57-2.71,6.5-4,7.43-3.1,1.37,1.37-2.12,7.07-7.78,12.73S68.87,177,67.5,175.6c-.93-.93.39-3.87,3.1-7.43" style="fill:none;stroke:#000;stroke-linecap:round;stroke-linejoin:round"/><path d="M73.24,171.23a7.5,7.5,0,0,1,8.32-12.48,7.63,7.63,0,0,1,2.08,2.08" style="fill:none;stroke:#000;stroke-linecap:round;stroke-linejoin:round"/><path d="M84.9,165a7.5,7.5,0,0,1-7.5,7.5" style="fill:none;stroke:#000;stroke-linecap:round;stroke-linejoin:round"/><path d="M34.64,125.48V115a1.5,1.5,0,0,1,1.5-1.5h18a1.5,1.5,0,0,1,1.5,1.5v10.5" style="fill:none;stroke:#000;stroke-linecap:round;stroke-linejoin:round"/><path d="M48.45,127.48a.51.51,0,0,0-.45.28l-.22.44a.51.51,0,0,1-.45.28H43a.51.51,0,0,1-.45-.28l-.22-.44a.51.51,0,0,0-.45-.28H34.14a.5.5,0,0,0-.5.5v1.5a1,1,0,0,0,1,1h21a1,1,0,0,0,1-1V128a.5.5,0,0,0-.5-.5Z" style="fill:none;stroke:#000;stroke-linecap:round;stroke-linejoin:round"/><line x1="43.64" y1="120.48" x2="47.64" y2="120.48" style="fill:none;stroke:#000;stroke-linecap:round;stroke-linejoin:round"/><line x1="45.64" y1="118.48" x2="45.64" y2="122.48" style="fill:none;stroke:#000;stroke-linecap:round;stroke-linejoin:round"/><line x1="48.64" y1="123.48" x2="52.64" y2="123.48" style="fill:none;stroke:#000;stroke-linecap:round;stroke-linejoin:round"/><path d="M48.64,119,50,117.66a.6.6,0,0,1,.43-.18.25.25,0,0,1,.25.25v5.75" style="fill:none;stroke:#000;stroke-linecap:round;stroke-linejoin:round"/><path d="M37.64,119.48a2,2,0,1,1,3.2,1.6l-3.2,2.4h4" style="fill:none;stroke:#000;stroke-linecap:round;stroke-linejoin:round"/><path d="M31.14,166.63a1,1,0,0,0-.6-.92L20,161.15a1,1,0,0,0-.8,0l-10.5,4.56a1,1,0,0,0-.6.92v11.68a1,1,0,0,0,.62.92l11,4.58a1,1,0,0,0,.8,0l10-4.55a1,1,0,0,0,.59-.91Z" style="fill:none;stroke:#000;stroke-linecap:round;stroke-linejoin:round"/><line x1="20.14" y1="170.97" x2="8.33" y2="166.05" style="fill:none;stroke:#000;stroke-linecap:round;stroke-linejoin:round"/><line x1="20.14" y1="170.97" x2="30.96" y2="166.06" style="fill:none;stroke:#000;stroke-linecap:round;stroke-linejoin:round"/><line x1="14.83" y1="163.07" x2="25.93" y2="168.35" style="fill:none;stroke:#000;stroke-linecap:round;stroke-linejoin:round"/><path d="M17.14,173.43a.51.51,0,0,0-.3-.46l-5-2.19a.51.51,0,0,0-.66.26.45.45,0,0,0,0,.2v3.91a.51.51,0,0,0,.3.46l5,2.18a.5.5,0,0,0,.66-.25.51.51,0,0,0,0-.2Z" style="fill:none;stroke:#000;stroke-linecap:round;stroke-linejoin:round"/><line x1="20.14" y1="183.92" x2="20.14" y2="170.97" style="fill:none;stroke:#000;stroke-linecap:round;stroke-linejoin:round"/><rect x="12.64" y="60.89" width="23" height="23" rx="2" transform="translate(-52.17 73.23) rotate(-72.19)" style="fill:none;stroke:#000;stroke-linecap:round;stroke-linejoin:round"/><line x1="27.25" y1="67.62" x2="36.77" y2="70.67" style="fill:none;stroke:#000;stroke-linecap:round;stroke-linejoin:round"/><line x1="14.87" y1="63.64" x2="19.63" y2="65.17" style="fill:none;stroke:#000;stroke-linecap:round;stroke-linejoin:round"/><path d="M23.1,64.18a1,1,0,0,0-1.26.65l-.61,1.9.67,2.84,2.19-1.92.61-1.9a1,1,0,0,0-.65-1.26Z" style="fill:none;stroke:#000;stroke-linecap:round;stroke-linejoin:round"/><path d="M24.05,64.49l6.67,2.14A1,1,0,0,0,32,66l.92-2.85" style="fill:none;stroke:#000;stroke-linecap:round;stroke-linejoin:round"/><circle cx="22.92" cy="76.2" r="4.5" style="fill:none;stroke:#000;stroke-linecap:round;stroke-linejoin:round"/><path d="M20.54,75.44a2.5,2.5,0,0,1,3.14-1.62" style="fill:none;stroke:#000;stroke-linecap:round;stroke-linejoin:round"/><line x1="20.16" y1="70.06" x2="19.68" y2="69.12" style="fill:none;stroke:#000;stroke-linecap:round;stroke-linejoin:round"/><line x1="18.75" y1="71.19" x2="17.8" y2="70.88" style="fill:none;stroke:#000;stroke-linecap:round;stroke-linejoin:round"/><rect x="19.58" y="75.41" width="3" height="13" transform="translate(-63.35 76.93) rotate(-72.19)" style="fill:none;stroke:#000;stroke-linecap:round;stroke-linejoin:round"/><line x1="13.45" y1="77.89" x2="29.63" y2="83.09" style="fill:none;stroke:#000;stroke-linecap:round;stroke-linejoin:round"/><rect x="138.42" y="168.59" width="15" height="9" rx="1.5" transform="matrix(0.84, -0.54, 0.54, 0.84, -70.58, 106.9)" style="fill:none;stroke:#000;stroke-linecap:round;stroke-linejoin:round"/><circle cx="142.56" cy="175.26" r="1.5" style="fill:none;stroke:#000;stroke-linecap:round;stroke-linejoin:round"/><circle cx="149.28" cy="170.92" r="1.5" style="fill:none;stroke:#000;stroke-linecap:round;stroke-linejoin:round"/><line x1="148.19" y1="179.36" x2="150.71" y2="177.73" style="fill:none;stroke:#000;stroke-linecap:round;stroke-linejoin:round"/><line x1="149.28" y1="181.04" x2="151.79" y2="179.41" style="fill:none;stroke:#000;stroke-linecap:round;stroke-linejoin:round"/><path d="M154.11,180.29l-5,3.23a3.66,3.66,0,0,0-1.09,5.06,3.51,3.51,0,0,0,.48.6l1.57,1.58a.51.51,0,0,0,.63.06l9.4-6.07a.51.51,0,0,0,.2-.6l-.79-2.08a3.68,3.68,0,0,0-4.73-2.13A4.47,4.47,0,0,0,154.11,180.29Z" style="fill:none;stroke:#000;stroke-linecap:round;stroke-linejoin:round"/><path d="M159,181.07l.87-2.47a3.67,3.67,0,0,0-.9-3.8l-.14-.13" style="fill:none;stroke:#000;stroke-linecap:round;stroke-linejoin:round"/><path d="M157.6,170.9a2.5,2.5,0,0,1-1.73,4.69" style="fill:none;stroke:#000;stroke-linecap:round;stroke-linejoin:round"/><path d="M147.85,188.25l-2.62-.22a3.67,3.67,0,0,1-3.09-2.38l-.1-.17" style="fill:none;stroke:#000;stroke-linecap:round;stroke-linejoin:round"/><path d="M139.13,182.84a2.5,2.5,0,1,0,5,.34" style="fill:none;stroke:#000;stroke-linecap:round;stroke-linejoin:round"/><path d="M158.36,185.89l-1.9-2.94a.49.49,0,0,0-.69-.15l-5,3.25a.5.5,0,0,0-.15.69l1.9,2.94" style="fill:none;stroke:#000;stroke-linecap:round;stroke-linejoin:round"/><path d="M63.85,21.81a1.5,1.5,0,0,0-.4-2.08l-2.9-2c-2.18-1.46-1.84-3.65-4.27-5.29S52,12,49.77,10.5l-2.9-1.95a1.49,1.49,0,0,0-2.08.4h0a1.49,1.49,0,0,0,.4,2.08l2.9,2c2.18,1.47,1.84,3.65,4.27,5.29s4.33.51,6.51,2l2.9,2A1.5,1.5,0,0,0,63.85,21.81Z" style="fill:none;stroke:#000;stroke-linecap:round;stroke-linejoin:round"/><path d="M49.79,6.9h0a1,1,0,0,0-1.39.27L47.28,8.83,48.94,10l1.12-1.66A1,1,0,0,0,49.79,6.9Z" style="fill:none;stroke:#000;stroke-linecap:round;stroke-linejoin:round"/><path d="M49.47,14.52l-1.4,2.08A1,1,0,0,0,48.34,18l5.8,3.91a1,1,0,0,0,1.39-.27l1.4-2.07" style="fill:none;stroke:#000;stroke-linecap:round;stroke-linejoin:round"/><path d="M44.16,22.4,42.5,21.28a1,1,0,0,1-.27-1.39,6.78,6.78,0,0,1,5.84-3.29" style="fill:none;stroke:#000;stroke-linecap:round;stroke-linejoin:round"/><path d="M51.62,27.43l1.66,1.12a1,1,0,0,0,1.38-.27,6.75,6.75,0,0,0,.87-6.65" style="fill:none;stroke:#000;stroke-linecap:round;stroke-linejoin:round"/><line x1="48.42" y1="3.56" x2="50.08" y2="4.68" style="fill:none;stroke:#000;stroke-linecap:round;stroke-linejoin:round"/><line x1="51.74" y1="5.8" x2="53.39" y2="6.92" style="fill:none;stroke:#000;stroke-linecap:round;stroke-linejoin:round"/><line x1="49.79" y1="6.9" x2="50.35" y2="6.07" style="fill:none;stroke:#000;stroke-linecap:round;stroke-linejoin:round"/><path d="M63.88,16.41h0a1,1,0,0,1,.27,1.38L63,19.45l-1.66-1.12,1.12-1.65A1,1,0,0,1,63.88,16.41Z" style="fill:none;stroke:#000;stroke-linecap:round;stroke-linejoin:round"/><line x1="67.49" y1="16.43" x2="65.83" y2="15.31" style="fill:none;stroke:#000;stroke-linecap:round;stroke-linejoin:round"/><line x1="64.17" y1="14.19" x2="62.51" y2="13.07" style="fill:none;stroke:#000;stroke-linecap:round;stroke-linejoin:round"/><line x1="63.88" y1="16.41" x2="64.44" y2="15.58" style="fill:none;stroke:#000;stroke-linecap:round;stroke-linejoin:round"/><line x1="44.72" y1="21.57" x2="43.6" y2="23.23" style="fill:none;stroke:#000;stroke-linecap:round;stroke-linejoin:round"/><line x1="52.18" y1="26.6" x2="51.06" y2="28.26" style="fill:none;stroke:#000;stroke-linecap:round;stroke-linejoin:round"/><path d="M193.1,129.48a2,2,0,0,1-2,2h-2.5a1,1,0,0,1-.8-.4l-.9-1.2a1,1,0,0,0-1.4-.2.76.76,0,0,0-.2.2l-.9,1.2a1,1,0,0,1-.8.4h-2.5a2,2,0,0,1-2-2v-3a2,2,0,0,1,2-2h10a2,2,0,0,1,2,2Z" style="fill:none;stroke:#000;stroke-linecap:round;stroke-linejoin:round"/><circle cx="182.6" cy="127.98" r="1.5" style="fill:none;stroke:#000;stroke-linecap:round;stroke-linejoin:round"/><circle cx="189.6" cy="127.98" r="1.5" style="fill:none;stroke:#000;stroke-linecap:round;stroke-linejoin:round"/><path d="M193.1,126.48v-4.76a1.24,1.24,0,0,0-2.35-.56,2.37,2.37,0,0,1-2.13,1.32h-5.05a2.38,2.38,0,0,1-2.13-1.32,1.24,1.24,0,0,0-2.34.56v4.76" style="fill:none;stroke:#000;stroke-linecap:round;stroke-linejoin:round"/><path d="M170.1,141.48a2,2,0,0,0,1.91,2h7.09a2,2,0,0,0,2-1.92v-.08Z" style="fill:none;stroke:#000;stroke-linecap:round;stroke-linejoin:round"/><path d="M172.1,135.48h7a1,1,0,0,1,1,1v5h-9v-5A1,1,0,0,1,172.1,135.48Z" style="fill:none;stroke:#000;stroke-linecap:round;stroke-linejoin:round"/><path d="M182.1,138.48h4a1,1,0,0,1,1,1v2a2,2,0,0,0,4,0v-10" style="fill:none;stroke:#000;stroke-linecap:round;stroke-linejoin:round"/><path d="M162.32,12.42a3.15,3.15,0,0,0,.74,2.93" style="fill:none;stroke:#000;stroke-linecap:round;stroke-linejoin:round"/><path d="M174.54,14.07a6.58,6.58,0,0,1-5.15,2.87" style="fill:none;stroke:#000;stroke-linecap:round;stroke-linejoin:round"/><line x1="171.63" y1="16.44" x2="172.11" y2="18.62" style="fill:none;stroke:#000;stroke-linecap:round;stroke-linejoin:round"/><path d="M178.6,24.21a9.28,9.28,0,0,1-2.46-1.69" style="fill:none;stroke:#000;stroke-linecap:round;stroke-linejoin:round"/><circle cx="175.52" cy="21.73" r="1" style="fill:none;stroke:#000;stroke-linecap:round;stroke-linejoin:round"/><circle cx="171.23" cy="26.37" r="1" style="fill:none;stroke:#000;stroke-linecap:round;stroke-linejoin:round"/><circle cx="166.14" cy="27.91" r="1" style="fill:none;stroke:#000;stroke-linecap:round;stroke-linejoin:round"/><circle cx="164.39" cy="23.28" r="1" style="fill:none;stroke:#000;stroke-linecap:round;stroke-linejoin:round"/><circle cx="172.08" cy="19.62" r="1" style="fill:none;stroke:#000;stroke-linecap:round;stroke-linejoin:round"/><circle cx="168.39" cy="16.86" r="1" style="fill:none;stroke:#000;stroke-linecap:round;stroke-linejoin:round"/><path d="M162.72,31.85a4,4,0,0,0,3.93-.33,4.49,4.49,0,0,0,.78.47,4,4,0,0,0,5.15-1.66,3.07,3.07,0,0,0,4.09-1.43v0a3.6,3.6,0,0,0-.57-3.58,3.63,3.63,0,0,0,3.07-1.94,3.06,3.06,0,0,0-1.58-4l0,0a4,4,0,0,0-2.15-5,4.41,4.41,0,0,0-.87-.28,4.05,4.05,0,0,0-6.29-2.84,3.85,3.85,0,0,0-.78-.47,4,4,0,0,0-5.15,1.67,3,3,0,0,0-4.08,1.42l0,0a3.62,3.62,0,0,0,.12,3.37,3.61,3.61,0,0,0-2.61,2.14,3.06,3.06,0,0,0,1.57,4h0a4,4,0,0,0,2.16,5,4.1,4.1,0,0,0,.86.27A4,4,0,0,0,162.72,31.85Z" style="fill:none;stroke:#000;stroke-linecap:round;stroke-linejoin:round"/><line x1="176.11" y1="25.29" x2="165.63" y2="20.55" style="fill:none;stroke:#000;stroke-linecap:round;stroke-linejoin:round"/><line x1="162.02" y1="18.92" x2="158.34" y2="17.25" style="fill:none;stroke:#000;stroke-linecap:round;stroke-linejoin:round"/><path d="M169.45,32.34l-.12-3.1a2.94,2.94,0,0,1,1-2.36" style="fill:none;stroke:#000;stroke-linecap:round;stroke-linejoin:round"/><path d="M165.3,23.69A3.38,3.38,0,0,1,166.55,27" style="fill:none;stroke:#000;stroke-linecap:round;stroke-linejoin:round"/><path d="M157.34,23.44a2.3,2.3,0,0,0,2.34-.64" style="fill:none;stroke:#000;stroke-linecap:round;stroke-linejoin:round"/><circle cx="163.88" cy="15.92" r="1" style="fill:none;stroke:#000;stroke-linecap:round;stroke-linejoin:round"/><circle cx="160.09" cy="21.89" r="1" style="fill:none;stroke:#000;stroke-linecap:round;stroke-linejoin:round"/></g></g></svg>